<?xml version="1.0" encoding="UTF-8"?>
<!-- Generator: Adobe Illustrator 19.0.0, SVG Export Plug-In . SVG Version: 6.00 Build 0)  -->
<svg version="1.1" id="Layer_1" xmlns="http://www.w3.org/2000/svg" xmlns:xlink="http://www.w3.org/1999/xlink" x="0px" y="0px" viewBox="0 0 5429.8 709.9" style="enable-background:new 0 0 5429.8 709.9;" xml:space="preserve">
<style type="text/css">
	.st0{fill:#F15D2E;}
	.st1{fill:#FFFFFF;}
</style>
<g id="XMLID_19_">
	<path id="XMLID_21_" class="st0" d="M26.3,692.8c116.1,11,242.1,17.1,373.7,17.1c131.6,0,257.6-6,373.7-17.1L400,477.1L26.3,692.8z   "/>
	<path id="XMLID_23_" class="st0" d="M0,647.2C48.5,541.1,106.3,429,172.1,315.1c65.8-114,134-220,201.6-315.1v431.5L0,647.2z"/>
	<path id="XMLID_20_" class="st0" d="M800,647.2C751.5,541.1,693.7,429,627.9,315.1c-65.8-114-134-220-201.6-315.1v431.5L800,647.2z   "/>
</g>
<g id="XMLID_1_">
	<g id="XMLID_26_">
		<path id="XMLID_42_" class="st1" d="M1200,54.3c52.4-8.7,119.3-13.6,190.1-13.6c122.2,0,206.6,25.2,266.7,75.6    c63,51.4,101.8,129,101.8,240.5c0,116.4-39.8,203.6-101.8,259.9c-65,59.2-168.7,89.2-295.8,89.2c-69.8,0-122.2-3.9-161-8.7V54.3z     M1319.3,608c16.5,2.9,41.7,2.9,65.9,2.9c155.2,1,247.3-84.4,247.3-250.2c1-144.5-82.4-226.9-231.8-226.9c-37.8,0-65,2.9-81.5,6.8    V608z"/>
		<path id="XMLID_40_" class="st1" d="M2227.9,409.2h-246.3v192H2257v98h-394.7V45.6h380.1v98h-260.9v168.7h246.3V409.2z"/>
		<path id="XMLID_38_" class="st1" d="M2475.2,699.2l-160-653.6h127l62.1,296.8c16.5,79.5,32,162.9,42.7,227.9h1.9    c10.7-68.9,29.1-146.4,47.5-228.9l70.8-295.8h125.1l65,300.6c16.5,77.6,30,150.3,39.8,221.1h1.9c11.6-71.8,27.2-146.4,44.6-226    l67.9-295.8h121.2l-175.5,653.6h-128l-67.9-307.4c-16.5-74.7-28.1-136.7-35.9-207.5h-1.9c-11.6,69.8-24.2,132.9-43.6,207.5    l-75.6,307.4H2475.2z"/>
		<path id="XMLID_36_" class="st1" d="M3577.8,409.2h-246.3v192h275.4v98h-394.7V45.6h380.1v98h-260.9v168.7h246.3V409.2z"/>
		<path id="XMLID_34_" class="st1" d="M3704.8,596.4c37.8,23.3,93.1,42.7,151.3,42.7c86.3,0,136.7-45.6,136.7-111.5    c0-61.1-34.9-96-123.2-130C3763,359.8,3697,304.5,3697,212.4c0-101.8,84.4-177.5,211.4-177.5c66.9,0,115.4,15.5,144.5,32    l-23.3,68.9c-21.3-11.6-65-31-124.1-31c-89.2,0-123.2,53.3-123.2,98c0,61.1,39.8,91.1,130,126.1c110.6,42.7,166.8,96,166.8,192    c0,100.8-74.7,188.1-228.9,188.1c-63,0-131.9-18.4-166.8-41.7L3704.8,596.4z"/>
		<path id="XMLID_31_" class="st1" d="M4622.2,460.6c0,173.6-120.3,249.2-233.7,249.2c-127,0-225-93.1-225-241.5    c0-157.1,102.8-249.2,232.8-249.2C4531,219.2,4622.2,317.1,4622.2,460.6z M4249.8,465.5c0,102.8,59.2,180.4,142.6,180.4    c81.5,0,142.6-76.6,142.6-182.3c0-79.5-39.8-180.4-140.6-180.4C4293.4,283.2,4249.8,376.3,4249.8,465.5z"/>
		<path id="XMLID_29_" class="st1" d="M4738.5,699.2V294.8h-66v-65h66v-22.3c0-65.9,14.6-126.1,54.3-163.9    c32-31,74.7-43.6,114.4-43.6c30.1,0,56.2,6.8,72.7,13.6l-11.6,65.9c-12.6-5.8-30.1-10.7-54.3-10.7c-72.7,0-91.1,64-91.1,135.8    v25.2h113.4v65h-113.4v404.4H4738.5z"/>
		<path id="XMLID_27_" class="st1" d="M5126.4,95v134.8h122.2v65h-122.2v253.1c0,58.2,16.5,91.2,64,91.2c22.3,0,38.8-2.9,49.5-5.8    l3.9,64c-16.5,6.8-42.7,11.6-75.6,11.6c-39.8,0-71.8-12.6-92.1-35.9c-24.3-25.2-33-66.9-33-122.2v-256h-72.7v-65h72.7V117.3    L5126.4,95z"/>
	</g>
	<path id="XMLID_17_" class="st1" d="M5429.8,88.2c0,50-39.3,89.3-90.3,89.3c-50.6,0-90.9-39.3-90.9-89.3   c0-48.9,40.3-88.2,90.9-88.2C5390.5,0,5429.8,39.3,5429.8,88.2z M5271.1,88.2c0,39.3,29,70.4,68.8,70.4c38.7,0,67.2-31.2,67.2-69.9   c0-39.3-28.5-71-67.8-71C5300.2,17.7,5271.1,49.5,5271.1,88.2z M5325.5,134.5H5305V46.2c8.1-1.6,19.4-2.7,33.9-2.7   c16.7,0,24.2,2.7,30.6,6.5c4.9,3.8,8.6,10.8,8.6,19.4c0,9.7-7.5,17.2-18.3,20.4v1.1c8.6,3.2,13.4,9.7,16.1,21.5   c2.7,13.4,4.3,18.8,6.5,22.1h-22c-2.7-3.2-4.3-11.3-7-21.5c-1.6-9.7-7-14-18.3-14h-9.7V134.5z M5326,84.4h9.7   c11.3,0,20.4-3.8,20.4-12.9c0-8.1-5.9-13.4-18.8-13.4c-5.4,0-9.1,0.5-11.3,1.1V84.4z"/>
</g>
<script xmlns=""/></svg>